<svg xmlns="http://www.w3.org/2000/svg" viewBox="0 0 400 300" preserveAspectRatio="xMidYMid meet">
  <rect width="400" height="300" fill="#f8f8f8"/>
  <!-- Scissors -->
  <g transform="translate(180, 120) rotate(-20)">
    <circle cx="-20" cy="0" r="15" fill="none" stroke="#000000" stroke-width="2"/>
    <circle cx="20" cy="0" r="15" fill="none" stroke="#000000" stroke-width="2"/>
    <line x1="-20" y1="0" x2="20" y2="80" stroke="#000000" stroke-width="3" stroke-linecap="round"/>
    <line x1="20" y1="0" x2="-20" y2="80" stroke="#000000" stroke-width="3" stroke-linecap="round"/>
    <!-- Blades -->
    <polygon points="-20,0 -10,0 -5,70 -25,70" fill="#ffffff" stroke="#000000" stroke-width="2"/>
    <polygon points="20,0 10,0 5,70 25,70" fill="#ffffff" stroke="#000000" stroke-width="2"/>
  </g>
  <!-- Thread spool -->
  <g transform="translate(280, 150)">
    <rect x="-20" y="-30" width="40" height="60" rx="5" fill="#ffffff" stroke="#000000" stroke-width="2"/>
    <ellipse cx="0" cy="-30" rx="20" ry="8" fill="#e0e0e0" stroke="#000000" stroke-width="1"/>
    <ellipse cx="0" cy="30" rx="20" ry="8" fill="#e0e0e0" stroke="#000000" stroke-width="1"/>
    <!-- Thread -->
    <path d="M 0 -25 Q 30 -15, 30 0 Q 30 15, 0 25" fill="none" stroke="#000000" stroke-width="1"/>
  </g>
  <!-- Needle -->
  <g transform="translate(120, 180)">
    <line x1="0" y1="0" x2="0" y2="40" stroke="#000000" stroke-width="2" stroke-linecap="round"/>
    <circle cx="0" cy="0" r="3" fill="none" stroke="#000000" stroke-width="1.5"/>
  </g>
</svg>
