<svg xmlns="http://www.w3.org/2000/svg" viewBox="0 0 400 300" preserveAspectRatio="xMidYMid meet">
  <rect width="400" height="300" fill="#f8f8f8"/>
  <!-- Hanger -->
  <g transform="translate(200, 80)">
    <path d="M -60 0 Q -60 -20, -40 -20 L 40 -20 Q 60 -20, 60 0" 
          fill="none" stroke="#000000" stroke-width="3" stroke-linecap="round"/>
    <circle cx="0" cy="-30" r="8" fill="#000000"/>
    <line x1="0" y1="-30" x2="0" y2="-50" stroke="#000000" stroke-width="2"/>
  </g>
  <!-- Shirt -->
  <g transform="translate(200, 100)">
    <path d="M -50 0 L -70 40 L -60 40 L -60 120 L 60 120 L 60 40 L 70 40 L 50 0 Z" 
          fill="#ffffff" stroke="#000000" stroke-width="2"/>
    <!-- Collar -->
    <path d="M -15 0 L -25 20 L 0 25 L 25 20 L 15 0" 
          fill="#ffffff" stroke="#000000" stroke-width="2"/>
    <!-- Buttons -->
    <circle cx="0" cy="40" r="3" fill="#000000"/>
    <circle cx="0" cy="60" r="3" fill="#000000"/>
    <circle cx="0" cy="80" r="3" fill="#000000"/>
  </g>
  <!-- Sparkle effects -->
  <g opacity="0.6">
    <path d="M 100 80 L 105 85 L 100 90 L 95 85 Z" fill="#000000"/>
    <path d="M 300 100 L 305 105 L 300 110 L 295 105 Z" fill="#000000"/>
    <path d="M 120 200 L 125 205 L 120 210 L 115 205 Z" fill="#000000"/>
  </g>
</svg>
